<?xml version="1.0"?>
<svg width="512" height="512" xmlns="http://www.w3.org/2000/svg" xmlns:svg="http://www.w3.org/2000/svg">
 <g class="layer">
  <title>Layer 1</title>
  <path d="m327.03,65.82l-97.24,62.41l9.86,5.4l86.51,-55.53l146.73,83.11l-84.16,54.03l4.1,2.24l0,6.85l65.92,-42.32l13.84,7.84l-79.76,51.19l0,11.73l64.63,-41.49l15.13,8.57l-79.76,51.2l0,11.72l64.63,-41.49l15.13,8.57l-79.76,51.2l0,11.72l100.03,-64.21l-24.83,-14.06l24.83,-15.94l-24.83,-14.06l24.83,-15.94l-23.54,-13.33l23.84,-15.31l-166.13,-94.1zm31.06,44.74c-21.03,10.55 -49.06,12.34 -68.79,4.38l-38.57,24.76l126.91,69.47l36.58,-23.48c-14.41,-11.38 -13.21,-28.35 2.94,-41.67l-59.07,-33.46zm-130.59,36.94l-70.68,46.09l135.61,78.07l1.33,-0.85c2.5,-1.61 6.03,-3.89 10.24,-6.61c8.42,-5.45 19.56,-12.66 30.67,-19.86c16,-10.37 24.25,-15.72 31.92,-20.7l-139.09,-76.14zm115.47,1.17a8.58,14.44 82.068 0 1 0,0a8.58,14.44 82.068 0 1 8.32,1.94a8.58,14.44 82.068 0 1 -0.87,12.29a8.58,14.44 82.068 0 1 -20.27,1.29a8.58,14.44 82.068 0 1 0.87,-12.28a8.58,14.44 82.068 0 1 11.95,-3.24zm-218.42,47.11l-105.41,67.66l23.54,13.33l-23.84,15.31l24.83,14.06l-24.83,15.94l24.83,14.06l-24.83,15.94l166.13,94.11l100.31,-64.39l0,-11.72l-99.44,63.82l-146.73,-83.11l14.26,-9.15l131.6,74.54l100.31,-64.38l0,-11.72l-99.44,63.82l-146.73,-83.11l14.26,-9.15l131.6,74.54l100.31,-64.38l0,-11.72l-99.44,63.82l-146.73,-83.11l13.27,-8.52l132.9,75.28l100,-64.19l0,-5.05l-5.48,-3.15l-93.65,60.11l-146.73,-83.12l94.76,-60.82l-9.63,-5.55zm20.46,11.78l-46.92,30.12c14.41,11.37 13.21,28.35 -2.94,41.67l59.06,33.46c21.04,-10.56 49.06,-12.34 68.79,-4.38l45.97,-29.51l-123.96,-71.36zm229.82,32.19c-8.05,5.22 -15.14,9.83 -30.37,19.69c-11.11,7.21 -22.26,14.42 -30.69,19.88c-4.21,2.72 -7.75,5.01 -10.28,6.63c-0.09,0.06 -0.12,0.08 -0.21,0.13l0,85.93l71.55,-48.09l0,-84.17zm-200.99,17.49a8.58,14.44 82.068 0 1 8.32,1.94a8.58,14.44 82.068 0 1 -0.87,12.28a8.58,14.44 82.068 0 1 -20.27,1.29a8.58,14.44 82.068 0 1 0.87,-12.28a8.58,14.44 82.068 0 1 11.95,-3.23z" fill="#ffffff" id="svg_1"/>
 </g>
</svg>